<svg height="512pt" viewBox="0 -38 512 512" width="512pt" xmlns="http://www.w3.org/2000/svg" xmlns:xlink="http://www.w3.org/1999/xlink"><linearGradient id="a" gradientUnits="userSpaceOnUse" x1="0" x2="512" y1="218" y2="218"><stop offset="0" stop-color="#80d8ff"/><stop offset="1" stop-color="#ea80fc"/></linearGradient><path d="m492 116c11.046875 0 20-8.953125 20-20v-76c0-11.046875-8.953125-20-20-20h-160c-11.046875 0-20 8.953125-20 20v140h-174c-76.09375 0-138 61.90625-138 138v118c0 11.046875 8.953125 20 20 20h472c11.046875 0 20-8.953125 20-20v-118c0-76.09375-61.90625-138-138-138h-22v-44zm-140-76h120v36h-120zm-116 356h-196v-98c0-54.035156 43.960938-98 98-98s98 43.964844 98 98zm138-196c54.039062 0 98 43.964844 98 98v98h-196v-98c0-38.285156-15.675781-72.976562-40.941406-98h76.941406v98c0 11.046875 8.953125 20 20 20s20-8.953125 20-20v-98zm0 0" fill="url(#a)"/></svg>